<svg width="16" height="16" viewBox="0 0 16 16" fill="none" xmlns="http://www.w3.org/2000/svg">
<path d="M10.3178 8.59338L11.3278 14.2774C11.3391 14.3443 11.3298 14.4131 11.3009 14.4746C11.2721 14.536 11.2252 14.5872 11.1665 14.6212C11.1077 14.6553 11.04 14.6706 10.9724 14.6652C10.9047 14.6597 10.8403 14.6338 10.7878 14.5907L8.40117 12.7994C8.28595 12.7133 8.14599 12.6668 8.00217 12.6668C7.85835 12.6668 7.71838 12.7133 7.60317 12.7994L5.2125 14.5901C5.16005 14.633 5.09574 14.6589 5.02816 14.6644C4.96059 14.6699 4.89295 14.6546 4.83428 14.6206C4.7756 14.5867 4.72868 14.5356 4.69978 14.4743C4.67088 14.4129 4.66136 14.3443 4.6725 14.2774L5.68183 8.59338" stroke="#003148" stroke-width="1.6658" stroke-linecap="round" stroke-linejoin="round"/>
<path d="M8 9.33337C10.2091 9.33337 12 7.54251 12 5.33337C12 3.12424 10.2091 1.33337 8 1.33337C5.79086 1.33337 4 3.12424 4 5.33337C4 7.54251 5.79086 9.33337 8 9.33337Z" stroke="#003148" stroke-width="1.6658" stroke-linecap="round" stroke-linejoin="round"/>
</svg>
