<svg width="16" height="16" viewBox="0 0 16 16" fill="none" xmlns="http://www.w3.org/2000/svg">
<path d="M8.00021 12.3333C8.00129 12.6828 7.89215 13.0238 7.68832 13.3077C7.48449 13.5916 7.19634 13.8041 6.86484 13.9148C6.53334 14.0256 6.17536 14.029 5.84181 13.9246C5.50825 13.8202 5.2161 13.6133 5.00688 13.3333H5.00021C4.74343 13.3364 4.48951 13.2793 4.25875 13.1666C4.028 13.0539 3.82682 12.8888 3.67131 12.6845C3.51581 12.4801 3.4103 12.2422 3.36322 11.9897C3.31615 11.7373 3.32882 11.4773 3.40021 11.2307C3.04633 11.1214 2.73005 10.9153 2.48709 10.6357C2.24412 10.3562 2.08414 10.0143 2.02521 9.64861C1.96628 9.28295 2.01074 8.90809 2.15357 8.56636C2.29641 8.22463 2.53193 7.92963 2.83354 7.71467C2.65482 7.34792 2.61861 6.92788 2.73193 6.53595C2.84524 6.14403 3.10002 5.80812 3.44688 5.59333C3.35755 5.36563 3.31993 5.12093 3.33672 4.87691C3.35351 4.63289 3.4243 4.39564 3.54397 4.18232C3.66365 3.969 3.82922 3.78493 4.02871 3.64341C4.22821 3.50189 4.45666 3.40645 4.69754 3.364C4.74275 3.12017 4.84179 2.88951 4.98745 2.68881C5.13311 2.48812 5.32172 2.32246 5.53953 2.20391C5.75734 2.08537 5.99885 2.01691 6.24647 2.00355C6.49409 1.99019 6.74158 2.03225 6.97088 2.12667C7.27554 2.25275 7.53596 2.46637 7.71919 2.7405C7.90241 3.01463 8.00021 3.33694 8.00021 3.66667M8.00021 12.3333V3.66667M8.00021 12.3333C7.99913 12.6828 8.10827 13.0238 8.3121 13.3077C8.51593 13.5916 8.80408 13.8041 9.13558 13.9148C9.46708 14.0256 9.82506 14.029 10.1586 13.9246C10.4922 13.8202 10.7843 13.6133 10.9935 13.3333H11.0002C11.2572 13.3367 11.5113 13.2798 11.7423 13.1673C11.9733 13.0548 12.1748 12.8897 12.3305 12.6853C12.4862 12.4809 12.5919 12.2428 12.6391 11.9902C12.6863 11.7376 12.6737 11.4775 12.6022 11.2307C12.956 11.1211 13.272 10.9149 13.5148 10.6352C13.7575 10.3555 13.9173 10.0136 13.976 9.64795C14.0347 9.28232 13.9901 8.90755 13.8471 8.56594C13.7041 8.22433 13.4685 7.92948 13.1669 7.71467C13.3455 7.34784 13.3816 6.92775 13.2682 6.53581C13.1548 6.14388 12.8999 5.80802 12.5529 5.59333C12.6422 5.36568 12.6799 5.12102 12.6631 4.87704C12.6463 4.63306 12.5756 4.39585 12.456 4.18254C12.3364 3.96923 12.1709 3.78515 11.9715 3.64359C11.7721 3.50203 11.5437 3.40654 11.3029 3.364C11.2322 2.98145 11.03 2.63567 10.7312 2.38655C10.4324 2.13744 10.0559 2.00069 9.66688 2C9.22485 2 8.80093 2.17559 8.48837 2.48816C8.17581 2.80072 8.00021 3.22464 8.00021 3.66667M2.66688 7C2.66687 6.72448 2.73516 6.45326 2.86564 6.21061C2.99613 5.96795 3.18473 5.76143 3.41458 5.60951C3.64443 5.4576 3.90836 5.36504 4.18274 5.34011C4.45713 5.31518 4.73341 5.35866 4.98688 5.46667M4.80021 11.1673C4.34756 11.3655 3.83757 11.3891 3.36855 11.2336C2.89953 11.0781 2.50469 10.7544 2.26014 10.325C2.0156 9.89565 1.93867 9.39094 2.04417 8.9082C2.14968 8.42546 2.43016 7.99887 2.83154 7.71067M13.3335 7C13.3336 6.7244 13.2653 6.45309 13.1348 6.21035C13.0043 5.96762 12.8156 5.76104 12.5857 5.60911C12.3557 5.45718 12.0917 5.36464 11.8172 5.33978C11.5427 5.31493 11.2664 5.35852 11.0129 5.46667M11.1995 11.1673C11.6523 11.3661 12.1625 11.39 12.6319 11.2347C13.1013 11.0793 13.4964 10.7556 13.7412 10.326C13.9859 9.89646 14.0629 9.39145 13.9572 8.90847C13.8515 8.42549 13.5707 7.99877 13.1689 7.71067" stroke="#59168B" stroke-linecap="round" stroke-linejoin="round"/>
</svg>
