<svg width="24" height="24" viewBox="0 0 24 24" fill="none" xmlns="http://www.w3.org/2000/svg">
<path d="M11.9961 17.9939V4.99829" stroke="white" stroke-width="1.99932" stroke-linecap="round" stroke-linejoin="round"/>
<path d="M14.9941 12.9955C14.1292 12.7426 13.3695 12.2164 12.8288 11.4955C12.2881 10.7746 11.9956 9.89793 11.9951 8.99683C11.9945 9.89793 11.702 10.7746 11.1614 11.4955C10.6207 12.2164 9.861 12.7426 8.99609 12.9955" stroke="white" stroke-width="1.99932" stroke-linecap="round" stroke-linejoin="round"/>
<path d="M17.5921 6.49787C17.8221 6.0995 17.9574 5.65354 17.9875 5.19451C18.0177 4.73548 17.9418 4.27567 17.7657 3.85066C17.5897 3.42566 17.3182 3.04684 16.9724 2.74353C16.6265 2.44021 16.2155 2.22052 15.7712 2.10146C15.3269 1.9824 14.8611 1.96715 14.4099 2.0569C13.9587 2.14665 13.5342 2.33899 13.1693 2.61903C12.8043 2.89908 12.5087 3.25934 12.3052 3.67192C12.1018 4.08451 11.996 4.53836 11.996 4.99838C11.996 4.53836 11.8902 4.08451 11.6868 3.67192C11.4833 3.25934 11.1877 2.89908 10.8227 2.61903C10.4578 2.33899 10.0333 2.14665 9.58213 2.0569C9.13095 1.96715 8.66517 1.9824 8.22083 2.10146C7.77648 2.22052 7.36548 2.44021 7.01963 2.74353C6.67377 3.04684 6.40233 3.42566 6.2263 3.85066C6.05027 4.27567 5.97437 4.73548 6.00448 5.19451C6.03458 5.65354 6.16988 6.0995 6.39991 6.49787" stroke="white" stroke-width="1.99932" stroke-linecap="round" stroke-linejoin="round"/>
<path d="M17.9902 5.12329C18.5778 5.27438 19.1233 5.55719 19.5855 5.95032C20.0476 6.34345 20.4142 6.83658 20.6575 7.39237C20.9008 7.94816 21.0144 8.55202 20.9898 9.15823C20.9652 9.76445 20.803 10.3571 20.5154 10.8913" stroke="white" stroke-width="1.99932" stroke-linecap="round" stroke-linejoin="round"/>
<path d="M17.9941 17.9939C18.8743 17.9939 19.7299 17.7034 20.4282 17.1676C21.1266 16.6317 21.6285 15.8804 21.8564 15.0302C22.0842 14.18 22.0251 13.2784 21.6883 12.4652C21.3515 11.652 20.7557 10.9726 19.9935 10.5325" stroke="white" stroke-width="1.99932" stroke-linecap="round" stroke-linejoin="round"/>
<path d="M19.9596 17.4771C20.0297 18.0191 19.9879 18.5698 19.8368 19.095C19.6857 19.6203 19.4285 20.109 19.0811 20.531C18.7338 20.9529 18.3036 21.2992 17.8171 21.5484C17.3307 21.7976 16.7983 21.9445 16.2529 21.9799C15.7075 22.0153 15.1606 21.9385 14.646 21.7542C14.1315 21.57 13.6601 21.2822 13.2611 20.9086C12.8621 20.5351 12.544 20.0837 12.3263 19.5824C12.1085 19.0811 11.9959 18.5404 11.9953 17.9939C11.9947 18.5404 11.8821 19.0811 11.6644 19.5824C11.4467 20.0837 11.1285 20.5351 10.7295 20.9086C10.3305 21.2822 9.85919 21.57 9.34462 21.7542C8.83005 21.9385 8.28317 22.0153 7.73775 21.9799C7.19234 21.9445 6.65997 21.7976 6.17353 21.5484C5.68708 21.2992 5.25689 20.9529 4.90952 20.531C4.56215 20.109 4.30497 19.6203 4.15388 19.095C4.00278 18.5698 3.96097 18.0191 4.03103 17.4771" stroke="white" stroke-width="1.99932" stroke-linecap="round" stroke-linejoin="round"/>
<path d="M5.99847 17.9939C5.11826 17.9939 4.26266 17.7034 3.56436 17.1676C2.86606 16.6317 2.36407 15.8804 2.13626 15.0302C1.90844 14.18 1.96752 13.2784 2.30434 12.4652C2.64116 11.652 3.23689 10.9726 3.99915 10.5325" stroke="white" stroke-width="1.99932" stroke-linecap="round" stroke-linejoin="round"/>
<path d="M6.00093 5.12329C5.41333 5.27438 4.86782 5.55719 4.40571 5.95032C3.94359 6.34345 3.577 6.83658 3.33368 7.39237C3.09037 7.94816 2.97672 8.55202 3.00134 9.15823C3.02596 9.76445 3.18821 10.3571 3.47579 10.8913" stroke="white" stroke-width="1.99932" stroke-linecap="round" stroke-linejoin="round"/>
</svg>
