<svg width="16" height="16" viewBox="0 0 16 16" fill="none" xmlns="http://www.w3.org/2000/svg">
<g clip-path="url(#clip0_1492_4628)">
<path d="M1.99504 10.8934C2.09305 11.1407 2.11488 11.4116 2.0577 11.6714L1.34778 13.8644C1.3249 13.9757 1.33082 14.0909 1.36496 14.1992C1.3991 14.3075 1.46034 14.4052 1.54287 14.4832C1.62539 14.5612 1.72647 14.6168 1.83652 14.6448C1.94657 14.6728 2.06194 14.6721 2.17169 14.643L4.44676 13.9778C4.69188 13.9291 4.94573 13.9504 5.17935 14.0391C6.60278 14.7038 8.21526 14.8445 9.73228 14.4362C11.2493 14.0279 12.5734 13.097 13.4709 11.8076C14.3684 10.5182 14.7817 8.95326 14.6378 7.38886C14.494 5.82446 13.8022 4.36114 12.6846 3.25709C11.5669 2.15303 10.0953 1.47918 8.52923 1.35443C6.96319 1.22968 5.40341 1.66205 4.1251 2.57526C2.84678 3.48846 1.93207 4.82381 1.54235 6.3457C1.15264 7.8676 1.31296 9.47823 1.99504 10.8934Z" stroke="#6A7282" stroke-width="1.33318" stroke-linecap="round" stroke-linejoin="round"/>
</g>
<defs>
<clipPath id="clip0_1492_4628">
<rect width="15.9982" height="15.9982" fill="white"/>
</clipPath>
</defs>
</svg>
