<svg width="24" height="24" viewBox="0 0 24 24" fill="none" xmlns="http://www.w3.org/2000/svg">
<path d="M9.8577 5.99998C9.8577 5.43166 10.0835 4.88662 10.4853 4.48475C10.8872 4.08289 11.4322 3.85713 12.0006 3.85713C12.5689 3.85713 13.1139 4.08289 13.5158 4.48475C13.9177 4.88662 14.1434 5.43166 14.1434 5.99998C14.1434 6.5683 13.9177 7.11335 13.5158 7.51521C13.1139 7.91708 12.5689 8.14284 12.0006 8.14284C11.4322 8.14284 10.8872 7.91708 10.4853 7.51521C10.0835 7.11335 9.8577 6.5683 9.8577 5.99998ZM12.0006 2.57141C11.0912 2.57141 10.2192 2.93263 9.57619 3.57562C8.93321 4.2186 8.57199 5.09067 8.57199 5.99998C8.57199 6.9093 8.93321 7.78137 9.57619 8.42435C10.2192 9.06733 11.0912 9.42855 12.0006 9.42855C12.9099 9.42855 13.7819 9.06733 14.4249 8.42435C15.0679 7.78137 15.4291 6.9093 15.4291 5.99998C15.4291 5.09067 15.0679 4.2186 14.4249 3.57562C13.7819 2.93263 12.9099 2.57141 12.0006 2.57141ZM4.71484 6.42855C4.26019 6.42855 3.82415 6.60917 3.50266 6.93066C3.18117 7.25215 3.00056 7.68818 3.00056 8.14284C3.00056 8.5975 3.18117 9.03353 3.50266 9.35502C3.82415 9.67651 4.26019 9.85713 4.71484 9.85713C5.1695 9.85713 5.60554 9.67651 5.92703 9.35502C6.24852 9.03353 6.42913 8.5975 6.42913 8.14284C6.42913 7.68818 6.24852 7.25215 5.92703 6.93066C5.60554 6.60917 5.1695 6.42855 4.71484 6.42855ZM1.71484 8.14284C1.71484 7.74887 1.79244 7.35877 1.94321 6.99479C2.09397 6.63081 2.31495 6.3001 2.59352 6.02152C2.8721 5.74294 3.20282 5.52197 3.56679 5.3712C3.93077 5.22044 4.32088 5.14284 4.71484 5.14284C5.10881 5.14284 5.49892 5.22044 5.86289 5.3712C6.22687 5.52197 6.55759 5.74294 6.83616 6.02152C7.11474 6.3001 7.33572 6.63081 7.48648 6.99479C7.63725 7.35877 7.71484 7.74887 7.71484 8.14284C7.71484 8.93849 7.39877 9.70155 6.83616 10.2642C6.27355 10.8268 5.51049 11.1428 4.71484 11.1428C3.91919 11.1428 3.15613 10.8268 2.59352 10.2642C2.03091 9.70155 1.71484 8.93849 1.71484 8.14284ZM19.2863 6.42855C18.8316 6.42855 18.3956 6.60917 18.0741 6.93066C17.7526 7.25215 17.572 7.68818 17.572 8.14284C17.572 8.5975 17.7526 9.03353 18.0741 9.35502C18.3956 9.67651 18.8316 9.85713 19.2863 9.85713C19.7409 9.85713 20.177 9.67651 20.4985 9.35502C20.8199 9.03353 21.0006 8.5975 21.0006 8.14284C21.0006 7.68818 20.8199 7.25215 20.4985 6.93066C20.177 6.60917 19.7409 6.42855 19.2863 6.42855ZM16.2863 8.14284C16.2863 7.34719 16.6023 6.58413 17.165 6.02152C17.7276 5.45891 18.4906 5.14284 19.2863 5.14284C20.0819 5.14284 20.845 5.45891 21.4076 6.02152C21.9702 6.58413 22.2863 7.34719 22.2863 8.14284C22.2863 8.93849 21.9702 9.70155 21.4076 10.2642C20.845 10.8268 20.0819 11.1428 19.2863 11.1428C18.4906 11.1428 17.7276 10.8268 17.165 10.2642C16.6023 9.70155 16.2863 8.93849 16.2863 8.14284ZM7.71484 12.6428C7.71484 11.8148 8.38684 11.1428 9.21484 11.1428H14.7863C15.6143 11.1428 16.2863 11.8148 16.2863 12.6428V17.1428C16.2863 18.2795 15.8347 19.3696 15.031 20.1733C14.2273 20.977 13.1372 21.4286 12.0006 21.4286C10.8639 21.4286 9.77383 20.977 8.9701 20.1733C8.16637 19.3696 7.71484 18.2795 7.71484 17.1428V12.6428ZM9.21484 12.4286C9.15801 12.4286 9.10351 12.4511 9.06332 12.4913C9.02313 12.5315 9.00056 12.586 9.00056 12.6428V17.1428C9.00056 17.9385 9.31663 18.7016 9.87924 19.2642C10.4418 19.8268 11.2049 20.1428 12.0006 20.1428C12.7962 20.1428 13.5593 19.8268 14.1219 19.2642C14.6845 18.7016 15.0006 17.9385 15.0006 17.1428V12.6428C15.0006 12.586 14.978 12.5315 14.9378 12.4913C14.8976 12.4511 14.8431 12.4286 14.7863 12.4286H9.21484ZM6.8577 12.6446L2.82656 13.7246C2.63626 13.7756 2.45787 13.8636 2.30159 13.9836C2.14531 14.1035 2.01419 14.2531 1.91573 14.4238C1.81727 14.5944 1.75339 14.7828 1.72775 14.9782C1.7021 15.1735 1.71519 15.372 1.76627 15.5623L2.48713 18.2528C2.65201 18.8687 2.95221 19.44 3.36587 19.9252C3.77952 20.4103 4.29621 20.797 4.87827 21.0572C5.46032 21.3173 6.09309 21.4444 6.73046 21.429C7.36782 21.4136 7.99373 21.2562 8.56256 20.9683C8.22845 20.6681 7.93509 20.3255 7.68999 19.9491C7.59684 19.9846 7.50141 20.0154 7.4037 20.0417C7.02313 20.1437 6.62619 20.1698 6.23555 20.1184C5.84491 20.0669 5.46823 19.9391 5.127 19.7421C4.78578 19.5451 4.4867 19.2828 4.24685 18.9702C4.00701 18.6576 3.83108 18.3009 3.72913 17.9203L3.00827 15.2288C2.99362 15.1739 3.00137 15.1155 3.02982 15.0663C3.05827 15.0171 3.10509 14.9812 3.15999 14.9666L6.8577 13.9757V12.6446ZM15.4394 20.9674C15.6994 21.0988 15.9754 21.2043 16.2674 21.2837C16.8111 21.4294 17.3781 21.4666 17.9362 21.3931C18.4942 21.3196 19.0323 21.137 19.5198 20.8555C20.0072 20.5741 20.4344 20.1994 20.777 19.7528C21.1196 19.3062 21.3709 18.7965 21.5166 18.2528L22.2374 15.5614C22.3403 15.1772 22.2864 14.7679 22.0876 14.4235C21.8888 14.079 21.5613 13.8276 21.1771 13.7246L17.1434 12.6446V13.9748L20.8446 14.9666C20.8993 14.9814 20.9459 15.0174 20.9742 15.0665C21.0025 15.1157 21.0101 15.1741 20.9954 15.2288L20.2754 17.9203C20.1669 18.3256 19.9744 18.7037 19.7106 19.0301C19.4468 19.3565 19.1174 19.6239 18.7438 19.815C18.3702 20.0061 17.9607 20.1168 17.5416 20.1397C17.1226 20.1627 16.7034 20.0974 16.3111 19.9483C16.066 20.3254 15.772 20.6683 15.4394 20.9674Z" fill="black"/>
</svg>
