<svg width="24" height="24" viewBox="0 0 24 24" fill="none" xmlns="http://www.w3.org/2000/svg">
<g clip-path="url(#clip0_1492_4736)">
<path d="M12.9023 5.75073C12.9023 5.75073 12.9023 11.5689 13.6523 14.2745C14.0217 15.6076 14.483 16.4476 15.5892 15.617L19.8811 15.5739C20.9855 16.4176 21.7767 15.6095 22.0148 14.2389C22.5773 11.0064 22.5773 5.75073 22.5773 5.75073H12.9023Z" fill="#6D4C41"/>
<path d="M16.7812 12.4913C16.7812 12.4913 13.7812 12.2194 12 15.2888V18.5925L16.7812 12.4913Z" fill="#651FFF"/>
<path d="M24 24.0993L12 24.103V16.5749C12 14.2724 13.7212 12.8755 15.9487 12.4912C17.3944 12.2418 18.8025 12.3337 20.0887 12.6374C22.1944 13.138 24 14.443 24 16.5749V24.0993Z" fill="#651FFF"/>
<path d="M0 24.0993L12 24.103V16.5749C12 14.2724 10.1962 12.8755 7.96875 12.4912C6.52313 12.2418 5.1975 12.3337 3.91125 12.6374C1.80563 13.138 0 14.4449 0 16.5749V24.0993Z" fill="#00BFA5"/>
<path d="M7.21875 12.4913C7.21875 12.4913 10.2806 12.2194 12 15.2888V18.5925L7.21875 12.4913Z" fill="#00BFA5"/>
<path d="M6.27344 13.8976C5.54781 13.8976 4.96094 13.3107 4.96094 12.5851V11.3813H7.58594V12.5851C7.58594 13.3107 6.99719 13.8976 6.27344 13.8976Z" fill="#E59900"/>
<path d="M10.2227 6.97876C10.2227 6.97876 10.9465 7.10438 10.9465 7.88438C10.9465 8.57251 10.4177 8.84438 9.88898 8.84438V6.97876H10.2227ZM2.32336 6.97876C2.32336 6.97876 1.59961 7.10438 1.59961 7.88438C1.59961 8.57251 2.12836 8.84438 2.65711 8.84438V6.97876H2.32336Z" fill="#E59600"/>
<path d="M6.27344 1.87134C3.15156 1.87134 2.33594 4.29009 2.33594 7.68946C2.33594 11.2145 4.60094 12.1257 6.27344 12.1257C7.92156 12.1257 10.2109 11.2407 10.2109 7.68946C10.2109 4.29196 9.39344 1.87134 6.27344 1.87134Z" fill="#FCC21B"/>
<path d="M4.9757 8.00624C4.9757 8.35686 4.74133 8.64186 4.4507 8.64186C4.16008 8.64186 3.92383 8.35686 3.92383 8.00624C3.92383 7.65374 4.16008 7.37061 4.4507 7.37061C4.74133 7.36874 4.9757 7.65374 4.9757 8.00624ZM7.56883 8.00624C7.56883 8.35686 7.8032 8.64186 8.0957 8.64186C8.38633 8.64186 8.62258 8.35686 8.62258 8.00624C8.62258 7.65374 8.38633 7.37061 8.0957 7.37061C7.8032 7.36874 7.56883 7.65374 7.56883 8.00624Z" fill="#444444"/>
<path d="M7.4147 10.1531H5.1347C5.00345 10.1531 4.9472 10.2412 5.03345 10.3725C5.15532 10.5562 5.60345 10.9106 6.27282 10.9106C6.9422 10.9106 7.3922 10.5562 7.5122 10.3725C7.60032 10.2412 7.54407 10.1531 7.4147 10.1531Z" fill="#513F35"/>
<path d="M6.82259 9.18376C6.62946 9.23814 6.42696 9.26626 6.27134 9.26626C6.11571 9.26626 5.91509 9.24001 5.72009 9.18376C5.63759 9.15939 5.60384 9.23814 5.63384 9.29064C5.69571 9.39939 5.94321 9.61689 6.26946 9.61689C6.59571 9.61689 6.84509 9.39939 6.90509 9.29064C6.93884 9.23814 6.90696 9.15939 6.82259 9.18376Z" fill="#E59600"/>
<path d="M6.36672 1.42692C6.36672 1.42692 6.30672 1.42505 6.27859 1.42505C6.25234 1.42505 6.19047 1.42692 6.19047 1.42692C2.82484 1.49255 1.80859 3.51942 1.80859 4.9238C1.80859 6.2888 1.81047 7.29192 1.81047 7.29192C1.81047 7.29192 1.86484 7.23567 1.96234 7.1588C2.06734 7.0763 2.18547 7.0313 2.18547 7.0313L2.35609 8.1713L3.47922 5.82567C3.48672 5.81067 3.50172 5.80317 3.51672 5.80505L4.18234 5.87817C4.85172 5.95317 5.52297 5.9888 6.19422 5.99067V5.99255H6.37047V5.99067C7.04172 5.9888 7.71297 5.95317 8.38234 5.87817L9.04797 5.80505C9.06484 5.80317 9.07984 5.81255 9.08547 5.82567L10.2086 8.1713L10.3792 7.0313C10.3792 7.0313 10.4955 7.07817 10.6023 7.1588C10.7017 7.23567 10.7542 7.29192 10.7542 7.29192C10.7542 7.29192 10.7561 6.2888 10.7561 4.9238C10.7505 3.51942 9.73422 1.49255 6.36672 1.42692Z" fill="#6D4C41"/>
<path d="M0 18.21H1.53562V24.0993H0V18.21ZM22.5262 18.21H24.0262V24.0993H22.5262V18.21Z" fill="#FCC21B"/>
<path d="M17.752 13.8976C17.0263 13.8976 16.4395 13.3107 16.4395 12.5851V11.4639H19.0645V12.5851C19.0645 13.3107 18.4757 13.8976 17.752 13.8976Z" fill="#E59900"/>
<path d="M17.7516 10.0705C20.4232 10.0705 22.5891 8.1238 22.5891 5.72239C22.5891 3.32099 20.4232 1.37427 17.7516 1.37427C15.0799 1.37427 12.9141 3.32099 12.9141 5.72239C12.9141 8.1238 15.0799 10.0705 17.7516 10.0705Z" fill="#6D4C41"/>
<path d="M17.7519 2.42065C14.7781 2.42065 14 4.7269 14 7.96503C14 11.2032 16.3063 12.1913 17.7519 12.1913C19.1975 12.1913 21.5038 11.2032 21.5038 7.96503C21.5038 4.7269 20.7256 2.42065 17.7519 2.42065Z" fill="#FCC21B"/>
<path d="M16.4683 8.09802C16.4683 8.44489 16.2358 8.72614 15.947 8.72614C15.6602 8.72614 15.4258 8.44489 15.4258 8.09802C15.4258 7.74927 15.6602 7.46802 15.947 7.46802C16.2358 7.46802 16.4683 7.75114 16.4683 8.09802ZM19.0352 8.09802C19.0352 8.44489 19.2677 8.72614 19.5564 8.72614C19.8433 8.72614 20.0777 8.44489 20.0777 8.09802C20.0777 7.74927 19.8433 7.46802 19.5564 7.46802C19.2677 7.46802 19.0352 7.75114 19.0352 8.09802Z" fill="#444444"/>
<path d="M18.8866 4.96307C18.4909 5.34369 16.5278 7.11369 13.8203 7.57494V3.94494C13.8203 3.94494 14.9884 1.62744 17.7916 1.62744C20.5947 1.62744 21.7628 4.00494 21.7628 4.00494V7.57494C21.7628 7.57494 19.9253 6.86994 19.0028 4.98557C18.9983 4.97478 18.9911 4.96528 18.982 4.9579C18.973 4.95053 18.9622 4.94551 18.9507 4.94328C18.9392 4.94106 18.9273 4.9417 18.9162 4.94515C18.905 4.9486 18.8948 4.95475 18.8866 4.96307Z" fill="#6D4C41"/>
<path d="M18.8787 10.2244H16.6212C16.4918 10.2244 16.4355 10.3106 16.5218 10.4419C16.6418 10.6237 17.0862 10.9744 17.748 10.9744C18.4099 10.9744 18.8562 10.6237 18.9743 10.4419C19.0643 10.3106 19.008 10.2244 18.8787 10.2244Z" fill="#4C3734"/>
<path d="M18.2961 9.33562C18.1048 9.38999 17.9042 9.41624 17.7504 9.41624C17.5967 9.41624 17.398 9.38999 17.2048 9.33562C17.1223 9.31312 17.0904 9.38999 17.1204 9.44249C17.1804 9.54937 17.4261 9.76499 17.7504 9.76499C18.0748 9.76499 18.3186 9.54937 18.3805 9.44249C18.4104 9.38999 18.3786 9.31124 18.2961 9.33562Z" fill="#E48C15"/>
<path d="M16.0425 24.21H7.95747C7.89935 24.21 7.95747 22.8712 7.95747 22.8712C7.95747 21.0262 10.3068 20.4075 11.1225 20.4075H12.8793C13.695 20.4075 16.0425 21.0262 16.0425 22.8712V22.9237C16.0425 22.9893 16.1006 24.21 16.0425 24.21Z" fill="#B2DFDB"/>
<path d="M11.9985 21.8063C11.7653 21.8063 11.5416 21.7137 11.3767 21.5488C11.2118 21.3838 11.1191 21.1602 11.1191 20.927V20.252H12.8798V20.927C12.8798 21.4126 12.486 21.8063 11.9985 21.8063Z" fill="#E59900"/>
<path d="M12.0004 19.7607C14.1439 19.7607 15.8816 18.1245 15.8816 16.1063C15.8816 14.088 14.1439 12.4519 12.0004 12.4519C9.85684 12.4519 8.11914 14.088 8.11914 16.1063C8.11914 18.1245 9.85684 19.7607 12.0004 19.7607Z" fill="#6D4C41"/>
<path d="M15.1773 17.01C15.1773 17.01 15.768 17.1131 15.768 17.7488C15.768 18.3113 15.3367 18.5325 14.9055 18.5325V17.01H15.1773ZM8.82109 17.01C8.82109 17.01 8.23047 17.1131 8.23047 17.7488C8.23047 18.3113 8.66172 18.5325 9.09297 18.5325V17.01H8.82109Z" fill="#E59600"/>
<path d="M14.25 15.0995C13.7118 14.4301 12.7856 14.1414 12 14.1414C11.2162 14.1414 10.2881 14.4282 9.74996 15.0995C9.22308 15.7557 8.94746 16.6014 8.95121 17.7376C8.95496 18.6545 9.19121 19.3576 9.85496 19.9126C10.47 20.4264 11.1825 20.7039 11.9531 20.7039C12.7106 20.7039 13.5468 20.4395 14.1393 19.9182C14.79 19.3464 15.0412 18.6545 15.045 17.7395C15.0525 16.6014 14.775 15.7557 14.25 15.0995Z" fill="#FCC21B"/>
<path d="M12.4436 18.4257C12.2861 18.4707 12.1249 18.4914 11.9993 18.4914C11.8736 18.4914 11.7105 18.4689 11.5549 18.4257C11.4874 18.407 11.4611 18.4707 11.4855 18.512C11.5361 18.6001 11.7349 18.7764 11.9993 18.7764C12.2636 18.7764 12.4642 18.6001 12.513 18.512C12.5374 18.4707 12.5111 18.407 12.4436 18.4257Z" fill="#E59600"/>
<path d="M12.9208 19.1494H11.0796C10.9746 19.1494 10.9277 19.2207 10.9989 19.3275C11.0964 19.4757 11.4602 19.7625 12.0002 19.7625C12.5421 19.7625 12.9039 19.4757 13.0033 19.3275C13.0727 19.2207 13.0277 19.1494 12.9208 19.1494Z" fill="#513F35"/>
<path d="M10.7805 17.7636C10.7805 18.0355 10.5987 18.2549 10.3737 18.2549C10.1487 18.2549 9.9668 18.0355 9.9668 17.7636C9.9668 17.4918 10.1505 17.2705 10.3737 17.2705C10.5987 17.2724 10.7805 17.4918 10.7805 17.7636ZM14.0337 17.7636C14.0337 18.0355 13.8518 18.2549 13.6268 18.2549C13.4018 18.2549 13.2199 18.0355 13.2199 17.7636C13.2199 17.4918 13.4037 17.2705 13.6268 17.2705C13.8518 17.2724 14.0337 17.4918 14.0337 17.7636Z" fill="#444444"/>
<path d="M8.78508 17.5538C8.78508 17.5538 9.67008 16.6276 9.99445 16.3163C10.0151 16.2957 10.0488 16.3126 10.0451 16.3426C10.032 16.4719 10.0226 16.6126 10.017 16.6969C10.0151 16.7363 10.0507 16.7682 10.0901 16.7607C10.7257 16.6407 11.337 16.3763 11.5001 16.3013C11.5207 16.2919 11.5413 16.3088 11.5413 16.3294C11.5376 16.4476 11.5395 16.5601 11.5413 16.6276C11.5413 16.6651 11.5751 16.6932 11.6126 16.6876C12.1957 16.5976 12.6813 16.3594 12.8426 16.2732C12.8801 16.2526 12.9213 16.2488 12.9626 16.2638C13.2645 16.3726 13.632 16.5863 13.7651 16.6651C13.7951 16.6819 13.8326 16.6726 13.8495 16.6426C13.9001 16.5507 13.9713 16.4101 14.0032 16.3426C14.0126 16.3238 14.037 16.3201 14.0501 16.3332C14.5245 16.8019 15.2182 17.5519 15.2182 17.5519L15.7076 15.9807C15.7076 15.9807 14.9145 13.1851 12.1601 13.1851C9.4057 13.1851 8.36133 16.1701 8.36133 16.1701L8.78508 17.5538Z" fill="#6D4C41"/>
</g>
<defs>
<clipPath id="clip0_1492_4736">
<rect width="24" height="24" fill="white"/>
</clipPath>
</defs>
</svg>
