<svg width="20" height="20" viewBox="0 0 20 20" fill="none" xmlns="http://www.w3.org/2000/svg">
<g clip-path="url(#clip0_1363_3849)">
<path d="M9.995 18.3237C14.595 18.3237 18.324 14.5947 18.324 9.99476C18.324 5.39479 14.595 1.66577 9.995 1.66577C5.39503 1.66577 1.66602 5.39479 1.66602 9.99476C1.66602 14.5947 5.39503 18.3237 9.995 18.3237Z" stroke="#9810FA" stroke-width="1.6658" stroke-linecap="round" stroke-linejoin="round"/>
<path d="M9.99544 14.9921C12.7554 14.9921 14.9928 12.7547 14.9928 9.99471C14.9928 7.23472 12.7554 4.99731 9.99544 4.99731C7.23546 4.99731 4.99805 7.23472 4.99805 9.99471C4.99805 12.7547 7.23546 14.9921 9.99544 14.9921Z" stroke="#9810FA" stroke-width="1.6658" stroke-linecap="round" stroke-linejoin="round"/>
<path d="M9.99392 11.6607C10.9139 11.6607 11.6597 10.9149 11.6597 9.9949C11.6597 9.0749 10.9139 8.3291 9.99392 8.3291C9.07393 8.3291 8.32812 9.0749 8.32812 9.9949C8.32812 10.9149 9.07393 11.6607 9.99392 11.6607Z" stroke="#9810FA" stroke-width="1.6658" stroke-linecap="round" stroke-linejoin="round"/>
</g>
<defs>
<clipPath id="clip0_1363_3849">
<rect width="19.9896" height="19.9896" fill="white"/>
</clipPath>
</defs>
</svg>
