<svg width="24" height="24" viewBox="0 0 24 24" fill="none" xmlns="http://www.w3.org/2000/svg">
<g clip-path="url(#clip0_1492_4801)">
<path d="M15.9993 9.33325H7.99935C7.99935 9.33325 4.66602 13.3333 4.66602 15.9999C4.66602 18.6666 11.9993 23.3333 11.9993 23.3333C11.9993 23.3333 19.3327 18.6666 19.3327 15.9999C19.3327 13.3333 15.9993 9.33325 15.9993 9.33325Z" fill="#31373D"/>
<path d="M13.0937 0.853221C12.4931 0.383887 11.5091 0.383887 10.9084 0.853221L1.09308 8.51722C0.492411 8.98655 0.492411 9.75455 1.09308 10.2239L10.9077 17.8872C11.5091 18.3566 12.4924 18.3566 13.0931 17.8872L22.9077 10.2239C23.5091 9.75455 23.5091 8.98655 22.9077 8.51722L13.0937 0.853221Z" fill="#292F33"/>
<path d="M13.0937 0.853221C12.4931 0.383887 11.5091 0.383887 10.9084 0.853221L1.09308 8.51722C0.492411 8.98655 0.492411 9.75455 1.09308 10.2239L10.9077 17.8872C11.5084 18.3566 12.4924 18.3566 13.0931 17.8872L22.9084 10.2239C23.5091 9.75455 23.5091 8.98655 22.9084 8.51722L13.0937 0.853221Z" fill="#394146"/>
<path d="M5.33333 16.6667C5.33333 16.6667 4 18.0001 4 18.6667V22.6667C4 22.6667 4 24.0001 5.33333 24.0001C6.66667 24.0001 6.66667 22.6667 6.66667 22.6667V18.6667C6.66667 18.0001 5.33333 16.6667 5.33333 16.6667Z" fill="#FCAB40"/>
<path d="M5.33398 19.3333C6.43855 19.3333 7.33398 18.4378 7.33398 17.3333C7.33398 16.2287 6.43855 15.3333 5.33398 15.3333C4.22941 15.3333 3.33398 16.2287 3.33398 17.3333C3.33398 18.4378 4.22941 19.3333 5.33398 19.3333Z" fill="#FDD888"/>
<path d="M5.33381 18.0001C5.157 18.0001 4.98743 17.9298 4.86241 17.8048C4.73738 17.6798 4.66714 17.5102 4.66714 17.3334V14.6947C4.63914 14.2721 4.79181 13.3374 5.54514 12.7721L11.5598 7.49874C11.6932 7.38526 11.8659 7.32883 12.0405 7.34163C12.2152 7.35443 12.3778 7.43543 12.4932 7.56713C12.6086 7.69883 12.6676 7.87066 12.6573 8.04548C12.6471 8.2203 12.5685 8.38407 12.4385 8.5014L6.38514 13.8067C5.98248 14.1107 5.99981 14.6547 5.99981 14.6601L6.00114 17.3334C6.00114 17.421 5.98388 17.5078 5.95033 17.5887C5.91679 17.6696 5.86762 17.7431 5.80565 17.805C5.74367 17.867 5.6701 17.9161 5.58914 17.9495C5.50818 17.983 5.42142 18.0002 5.33381 18.0001Z" fill="#FCAB40"/>
<path d="M12 10.6667C13.1046 10.6667 14 9.77132 14 8.66675C14 7.56218 13.1046 6.66675 12 6.66675C10.8954 6.66675 10 7.56218 10 8.66675C10 9.77132 10.8954 10.6667 12 10.6667Z" fill="#31373D"/>
</g>
<defs>
<clipPath id="clip0_1492_4801">
<rect width="24" height="24" fill="white"/>
</clipPath>
</defs>
</svg>
