<svg width="59" height="59" viewBox="0 0 59 59" fill="none" xmlns="http://www.w3.org/2000/svg">
<rect width="59" height="59" rx="28" fill="#9DD4EF"/>
<path d="M29.5007 49.1667C40.3622 49.1667 49.1673 40.3616 49.1673 29.5C49.1673 18.6384 40.3622 9.83337 29.5007 9.83337C18.6391 9.83337 9.83398 18.6384 9.83398 29.5C9.83398 40.3616 18.6391 49.1667 29.5007 49.1667Z" fill="#FCEA2B"/>
<path d="M20.5206 17.4027L27.0647 16.4188L23.865 22.2116L26.823 28.1314L20.3249 26.8784L15.6089 31.521L14.7926 24.9538L8.91992 21.9032L14.9135 19.0974L16 12.5695L20.5206 17.4027Z" fill="#F1B31C"/>
<path d="M38.4172 17.4027L31.873 16.4188L35.0727 22.2116L32.1148 28.1314L38.6128 26.8784L43.3289 31.521L44.1451 24.9538L50.0178 21.9032L44.0243 19.0974L42.9378 12.5695L38.4172 17.4027Z" fill="#F1B31C"/>
<path d="M40.7574 37.9862C39.2906 41.4852 35.5539 43.9107 29.531 43.9107C23.4589 43.9107 19.6731 41.4278 18.2227 37.8796C19.8861 38.2566 30.4979 40.4772 40.7574 37.9862Z" fill="#EA5A47"/>
<path d="M41.4688 34.3069C41.4688 35.618 41.2312 36.8554 40.7559 37.9862C30.4964 40.4773 19.8846 38.2566 18.2212 37.8797C17.7705 36.7734 17.541 35.5688 17.541 34.3069H17.6312C17.6312 34.3069 29.7671 37.2487 41.3049 34.3642L41.4688 34.3069Z" fill="white"/>
<path d="M41.4707 34.3069C41.4707 35.618 41.2331 36.8554 40.7578 37.9862C30.4984 40.4773 19.8866 38.2566 18.2231 37.8797C17.7724 36.7734 17.543 35.5688 17.543 34.3069H17.6331C17.6331 34.3069 29.7691 37.2487 41.3069 34.3642L41.4707 34.3069Z" stroke="black" stroke-width="2" stroke-miterlimit="10" stroke-linecap="round" stroke-linejoin="round"/>
<path d="M40.7574 37.9862C39.2906 41.4852 35.5539 43.9107 29.531 43.9107C23.4589 43.9107 19.6731 41.4278 18.2227 37.8796C19.8861 38.2566 30.4979 40.4772 40.7574 37.9862Z" stroke="black" stroke-width="2" stroke-miterlimit="10" stroke-linejoin="round"/>
<path d="M41.1593 37.8879C41.0282 37.9207 40.8889 37.9535 40.7578 37.9863" stroke="black" stroke-width="2" stroke-miterlimit="10" stroke-linejoin="round"/>
<path d="M18.2216 37.8798C18.0659 37.8388 17.9922 37.8224 17.9922 37.8224" stroke="black" stroke-width="2" stroke-miterlimit="10" stroke-linejoin="round"/>
<path d="M38.1487 12.7499C35.5585 11.4098 32.6177 10.6528 29.5002 10.6528C26.2596 10.6528 23.2101 11.4706 20.5468 12.9109C20.5057 12.9331 20.4647 12.9555 20.4238 12.978" stroke="black" stroke-width="2" stroke-miterlimit="10" stroke-linecap="round" stroke-linejoin="round"/>
<path d="M10.8116 27.038C10.7065 27.8437 10.6523 28.6655 10.6523 29.5001C10.6523 39.9088 19.0901 48.3473 29.4996 48.3473C39.9083 48.3473 48.3468 39.9088 48.3468 29.5001C48.3468 28.6746 48.2937 27.8616 48.1908 27.0642" stroke="black" stroke-width="2" stroke-miterlimit="10" stroke-linecap="round" stroke-linejoin="round"/>
<path d="M20.5831 17.4027L27.1272 16.4188L23.9275 22.2116L26.8855 28.1314L20.3875 26.8784L15.6714 31.521L14.8551 24.9538L8.98242 21.9032L14.976 19.0974L16.0625 12.5695L20.5831 17.4027Z" stroke="black" stroke-width="2" stroke-miterlimit="10" stroke-linecap="round" stroke-linejoin="round"/>
<path d="M38.4172 17.4027L31.873 16.4188L35.0727 22.2116L32.1148 28.1314L38.6128 26.8784L43.3289 31.521L44.1451 24.9538L50.0178 21.9032L44.0243 19.0974L42.9378 12.5695L38.4172 17.4027Z" stroke="black" stroke-width="2" stroke-miterlimit="10" stroke-linecap="round" stroke-linejoin="round"/>
</svg>
