<svg width="24" height="24" viewBox="0 0 24 24" fill="none" xmlns="http://www.w3.org/2000/svg">
<path d="M17.6234 1.68188C13.5153 1.68188 12.0059 5.88001 12.0059 5.88001C12.0059 5.88001 10.5172 1.68188 6.38095 1.68188C3.2722 1.68188 -0.271554 4.14563 1.0372 9.74626C2.34595 15.3469 12.0172 22.3238 12.0172 22.3238C12.0172 22.3238 21.6528 15.3469 22.9634 9.74626C24.2722 4.14563 20.9834 1.68188 17.6234 1.68188Z" fill="#59168B"/>
<path d="M5.74625 2.10001C8.97125 2.10001 10.5725 5.56688 11.09 6.97126C11.1631 7.17188 11.4425 7.17751 11.5269 6.98251L11.9994 5.87813C11.3338 3.75188 9.50375 1.68188 6.38 1.68188C5.08625 1.68188 3.71938 2.10938 2.65625 3.01126C3.59563 2.39438 4.69625 2.10001 5.74625 2.10001ZM17.6225 1.68188C16.6306 1.68188 15.7906 1.97063 15.0856 2.40376C15.5806 2.21251 16.1281 2.10001 16.7356 2.10001C19.775 2.10001 22.4956 4.40438 21.2675 9.73126C20.2138 14.3044 14.0563 19.8525 12.1756 21.9694C12.0556 22.1044 12.0144 22.3219 12.0144 22.3219C12.0144 22.3219 21.65 15.345 22.9606 9.74438C24.2712 4.14563 20.7313 1.68188 17.6225 1.68188Z" fill="#59168B"/>
<path opacity="0.3" d="M3.19426 4.65379C3.89738 3.77629 5.15363 3.05067 6.21863 3.88692C6.79426 4.33879 6.54301 5.26504 6.02738 5.65504C5.27738 6.22504 4.62488 6.56817 4.16738 7.46067C3.89363 7.99692 3.72863 8.58379 3.64426 9.18192C3.61051 9.41817 3.30113 9.47629 3.18488 9.26817C2.39363 7.86567 2.16863 5.93442 3.19426 4.65379ZM14.4668 6.49879C14.1368 6.49879 13.9043 6.18004 14.0243 5.87254C14.2474 5.30629 14.5361 4.75879 14.883 4.27129C15.3968 3.55129 16.3736 3.13129 16.9924 3.56817C17.6261 4.01442 17.5436 4.90692 17.0993 5.33817C16.1449 6.26254 14.9411 6.49879 14.4668 6.49879Z" fill="white"/>
</svg>
