<svg width="24" height="24" viewBox="0 0 24 24" fill="none" xmlns="http://www.w3.org/2000/svg">
<path d="M11.9961 6.99756V20.9928" stroke="white" stroke-width="1.99932" stroke-linecap="round" stroke-linejoin="round"/>
<path d="M2.99966 17.9939C2.73453 17.9939 2.48027 17.8886 2.29279 17.7011C2.10532 17.5137 2 17.2594 2 16.9943V3.99868C2 3.73356 2.10532 3.47929 2.29279 3.29182C2.48027 3.10434 2.73453 2.99902 2.99966 2.99902H7.99796C9.05847 2.99902 10.0755 3.42031 10.8254 4.1702C11.5753 4.92009 11.9966 5.93716 11.9966 6.99767C11.9966 5.93716 12.4179 4.92009 13.1678 4.1702C13.9177 3.42031 14.9347 2.99902 15.9952 2.99902H20.9936C21.2587 2.99902 21.5129 3.10434 21.7004 3.29182C21.8879 3.47929 21.9932 3.73356 21.9932 3.99868V16.9943C21.9932 17.2594 21.8879 17.5137 21.7004 17.7011C21.5129 17.8886 21.2587 17.9939 20.9936 17.9939H14.9956C14.2002 17.9939 13.4374 18.3099 12.875 18.8723C12.3126 19.4347 11.9966 20.1975 11.9966 20.9929C11.9966 20.1975 11.6806 19.4347 11.1182 18.8723C10.5558 18.3099 9.793 17.9939 8.99762 17.9939H2.99966Z" stroke="white" stroke-width="1.99932" stroke-linecap="round" stroke-linejoin="round"/>
</svg>
