<svg width="24" height="24" viewBox="0 0 24 24" fill="none" xmlns="http://www.w3.org/2000/svg">
<path d="M3.99916 13.9951C3.80999 13.9958 3.62452 13.9427 3.4643 13.8421C3.30408 13.7416 3.17568 13.5976 3.09402 13.427C3.01236 13.2563 2.9808 13.066 3.003 12.8782C3.0252 12.6903 3.10025 12.5126 3.21943 12.3657L13.1161 2.16913C13.1903 2.08344 13.2915 2.02553 13.403 2.00492C13.5144 1.9843 13.6296 2.0022 13.7296 2.05567C13.8296 2.10914 13.9084 2.19502 13.9531 2.29919C13.9979 2.40337 14.0058 2.51966 13.9758 2.62897L12.0564 8.64693C11.9998 8.7984 11.9808 8.96134 12.001 9.12177C12.0213 9.28221 12.0801 9.43534 12.1725 9.56804C12.2649 9.70074 12.3881 9.80905 12.5315 9.88367C12.675 9.95829 12.8344 9.997 12.9961 9.99647H19.9937C20.1829 9.99583 20.3684 10.0489 20.5286 10.1494C20.6888 10.25 20.8172 10.394 20.8989 10.5646C20.9805 10.7353 21.0121 10.9256 20.9899 11.1134C20.9677 11.3013 20.8926 11.479 20.7735 11.6259L10.8768 21.8225C10.8026 21.9081 10.7014 21.966 10.5899 21.9867C10.4785 22.0073 10.3633 21.9894 10.2633 21.9359C10.1633 21.8824 10.0845 21.7966 10.0398 21.6924C9.99504 21.5882 9.98705 21.4719 10.0171 21.3626L11.9365 15.3447C11.9931 15.1932 12.0121 15.0302 11.9919 14.8698C11.9716 14.7094 11.9128 14.5562 11.8204 14.4235C11.728 14.2908 11.6048 14.1825 11.4614 14.1079C11.3179 14.0333 11.1585 13.9946 10.9968 13.9951H3.99916Z" stroke="#061F2B" stroke-width="1.99932" stroke-linecap="round" stroke-linejoin="round"/>
</svg>
