<svg width="20" height="21" viewBox="0 0 20 21" fill="none" xmlns="http://www.w3.org/2000/svg">
<path d="M1 9.00048C0.99993 8.70955 1.06333 8.4221 1.18579 8.1582C1.30824 7.89429 1.4868 7.66028 1.709 7.47248L8.709 1.47248C9.06999 1.16739 9.52736 1 10 1C10.4726 1 10.93 1.16739 11.291 1.47248L18.291 7.47248C18.5132 7.66028 18.6918 7.89429 18.8142 8.1582C18.9367 8.4221 19.0001 8.70955 19 9.00048V18.0005C19 18.5309 18.7893 19.0396 18.4142 19.4147C18.0391 19.7898 17.5304 20.0005 17 20.0005H3C2.46957 20.0005 1.96086 19.7898 1.58579 19.4147C1.21071 19.0396 1 18.5309 1 18.0005V9.00048Z" stroke="#525252" stroke-width="2" stroke-linecap="round" stroke-linejoin="round"/>
</svg>
