<svg width="26" height="26" viewBox="0 0 26 26" fill="none" xmlns="http://www.w3.org/2000/svg">
<path d="M2.09961 10.2916C2.09963 9.08609 2.45408 7.90892 3.11615 6.91559C3.77821 5.92226 4.71675 5.15951 5.8078 4.72806C6.89884 4.29661 8.09107 4.21678 9.22702 4.49909C10.363 4.78141 11.3892 5.4126 12.1702 6.30929C12.2252 6.36997 12.2917 6.41835 12.3655 6.45142C12.4394 6.4845 12.5191 6.50156 12.5996 6.50156C12.6801 6.50156 12.7598 6.4845 12.8337 6.45142C12.9075 6.41835 12.974 6.36997 13.0291 6.30929C13.8076 5.40677 14.834 4.77028 15.9718 4.48453C17.1096 4.19878 18.3048 4.27734 19.3982 4.70973C20.4917 5.14213 21.4315 5.90787 22.0928 6.90502C22.754 7.90217 23.1052 9.08344 23.0996 10.2916C23.0996 12.7724 21.5246 14.6249 19.9496 16.2499L14.183 22.0057C13.9874 22.2375 13.7461 22.4237 13.4753 22.552C13.2046 22.6802 12.9104 22.7476 12.6125 22.7495C12.3146 22.7515 12.0196 22.688 11.7473 22.5633C11.475 22.4386 11.2315 22.2555 11.033 22.0263L5.24961 16.2499C3.67461 14.6249 2.09961 12.7833 2.09961 10.2916Z" stroke="#0A58CA" stroke-width="2.1" stroke-linecap="round" stroke-linejoin="round"/>
</svg>
