<svg width="59" height="59" viewBox="0 0 59 59" fill="none" xmlns="http://www.w3.org/2000/svg">
<rect width="59" height="59" rx="28" fill="#9DD4EF"/>
<path d="M29.4996 10.6528C19.1071 10.6528 10.6523 19.1076 10.6523 29.5001C10.6523 39.8924 19.1071 48.3473 29.4996 48.3473C39.8919 48.3473 48.3468 39.8924 48.3468 29.5001C48.3468 19.1076 39.8919 10.6528 29.4996 10.6528Z" fill="#FCEA2B"/>
<path d="M29.4996 48.3473C39.9086 48.3473 48.3468 39.9091 48.3468 29.5001C48.3468 19.091 39.9086 10.6528 29.4996 10.6528C19.0905 10.6528 10.6523 19.091 10.6523 29.5001C10.6523 39.9091 19.0905 48.3473 29.4996 48.3473Z" stroke="black" stroke-width="2" stroke-miterlimit="10"/>
<path d="M22.125 35.2362H36.875" stroke="black" stroke-width="2" stroke-miterlimit="10" stroke-linecap="round" stroke-linejoin="round"/>
<path d="M24.5827 25.4028C24.5827 26.7604 23.4807 27.8611 22.1243 27.8611C20.7679 27.8611 19.666 26.7604 19.666 25.4028C19.666 24.0464 20.7679 22.9445 22.1243 22.9445C23.4807 22.9445 24.5827 24.0464 24.5827 25.4028Z" fill="black"/>
<path d="M39.3327 25.4028C39.3327 26.7604 38.2308 27.8611 36.8743 27.8611C35.5179 27.8611 34.416 26.7604 34.416 25.4028C34.416 24.0464 35.5179 22.9445 36.8743 22.9445C38.2308 22.9445 39.3327 24.0464 39.3327 25.4028Z" fill="black"/>
</svg>
