<svg width="16" height="16" viewBox="0 0 16 16" fill="none" xmlns="http://www.w3.org/2000/svg">
<path d="M14.6673 8.00004H13.014C12.7226 7.99942 12.4391 8.09424 12.2067 8.27002C11.9744 8.44579 11.806 8.69284 11.7273 8.97337L10.1607 14.5467C10.1506 14.5813 10.1295 14.6117 10.1007 14.6334C10.0718 14.655 10.0367 14.6667 10.0007 14.6667C9.96459 14.6667 9.9295 14.655 9.90065 14.6334C9.8718 14.6117 9.85075 14.5813 9.84065 14.5467L6.16065 1.45337C6.15055 1.41875 6.1295 1.38834 6.10065 1.36671C6.0718 1.34507 6.03671 1.33337 6.00065 1.33337C5.96459 1.33337 5.9295 1.34507 5.90065 1.36671C5.8718 1.38834 5.85075 1.41875 5.84065 1.45337L4.27398 7.02671C4.19563 7.30614 4.02824 7.55238 3.79723 7.72805C3.56622 7.90371 3.2842 7.99921 2.99398 8.00004H1.33398" stroke="#59168B" stroke-width="1.6658" stroke-linecap="round" stroke-linejoin="round"/>
</svg>
