<svg width="32" height="32" viewBox="0 0 32 32" fill="none" xmlns="http://www.w3.org/2000/svg">
<path d="M26.663 17.3314C26.663 23.9973 21.9968 27.3303 16.4508 29.2634C16.1604 29.3618 15.8449 29.3571 15.5576 29.2501C9.99818 27.3303 5.33203 23.9973 5.33203 17.3314V7.99911C5.33203 7.64553 5.47249 7.30643 5.72251 7.05641C5.97253 6.80639 6.31163 6.66593 6.66522 6.66593C9.33159 6.66593 12.6645 5.0661 14.9843 3.03966C15.2667 2.79835 15.626 2.66577 15.9975 2.66577C16.369 2.66577 16.7283 2.79835 17.0107 3.03966C19.3438 5.07944 22.6634 6.66593 25.3298 6.66593C25.6834 6.66593 26.0225 6.80639 26.2725 7.05641C26.5225 7.30643 26.663 7.64553 26.663 7.99911V17.3314Z" stroke="#061F2B" stroke-width="2.66637" stroke-linecap="round" stroke-linejoin="round"/>
</svg>
