<svg width="59" height="59" viewBox="0 0 59 59" fill="none" xmlns="http://www.w3.org/2000/svg">
<rect width="59" height="59" rx="28" fill="#9DD4EF"/>
<path d="M29.4995 48.3471C39.9085 48.3471 48.3466 39.909 48.3466 29.5C48.3466 19.091 39.9085 10.6528 29.4995 10.6528C19.0905 10.6528 10.6523 19.091 10.6523 29.5C10.6523 39.909 19.0905 48.3471 29.4995 48.3471Z" fill="#FCEA2B"/>
<path d="M29.4996 48.3473C39.9086 48.3473 48.3468 39.9091 48.3468 29.5001C48.3468 19.091 39.9086 10.6528 29.4996 10.6528C19.0905 10.6528 10.6523 19.091 10.6523 29.5001C10.6523 39.9091 19.0905 48.3473 29.4996 48.3473Z" stroke="black" stroke-width="2" stroke-linecap="round" stroke-linejoin="round"/>
<path d="M37.5422 37.0609C35.2778 38.9277 32.4344 39.9487 29.4996 39.9487C26.5649 39.9487 23.7215 38.9277 21.457 37.0609" stroke="black" stroke-width="2" stroke-linecap="round" stroke-linejoin="round"/>
<path d="M25.9711 27.3724C25.6669 26.6877 25.1706 26.106 24.5424 25.6977C23.9142 25.2893 23.1811 25.072 22.4318 25.072C21.6826 25.072 20.9495 25.2893 20.3213 25.6977C19.6931 26.106 19.1968 26.6877 18.8926 27.3724" stroke="black" stroke-width="2" stroke-miterlimit="10" stroke-linecap="round"/>
<path d="M40.1059 27.3724C39.8017 26.6877 39.3054 26.106 38.6772 25.6977C38.049 25.2893 37.3158 25.072 36.5666 25.072C35.8174 25.072 35.0842 25.2893 34.456 25.6977C33.8278 26.106 33.3315 26.6877 33.0273 27.3724" stroke="black" stroke-width="2" stroke-miterlimit="10" stroke-linecap="round"/>
</svg>
