<svg width="20" height="20" viewBox="0 0 20 20" fill="none" xmlns="http://www.w3.org/2000/svg">
<g clip-path="url(#clip0_1492_4884)">
<path d="M9.1763 2.34379C9.21199 2.15273 9.31338 1.98016 9.4629 1.85598C9.61243 1.7318 9.80068 1.66382 9.99504 1.66382C10.1894 1.66382 10.3777 1.7318 10.5272 1.85598C10.6767 1.98016 10.7781 2.15273 10.8138 2.34379L11.6892 6.97304C11.7513 7.30216 11.9113 7.60489 12.1481 7.84173C12.3849 8.07857 12.6877 8.23851 13.0168 8.30068L17.6461 9.17606C17.8371 9.21175 18.0097 9.31313 18.1339 9.46266C18.258 9.61218 18.326 9.80043 18.326 9.9948C18.326 10.1892 18.258 10.3774 18.1339 10.5269C18.0097 10.6765 17.8371 10.7779 17.6461 10.8135L13.0168 11.6889C12.6877 11.7511 12.3849 11.911 12.1481 12.1479C11.9113 12.3847 11.7513 12.6874 11.6892 13.0166L10.8138 17.6458C10.7781 17.8369 10.6767 18.0094 10.5272 18.1336C10.3777 18.2578 10.1894 18.3258 9.99504 18.3258C9.80068 18.3258 9.61243 18.2578 9.4629 18.1336C9.31338 18.0094 9.21199 17.8369 9.1763 17.6458L8.30093 13.0166C8.23876 12.6874 8.07881 12.3847 7.84198 12.1479C7.60514 11.911 7.30241 11.7511 6.97329 11.6889L2.34404 10.8135C2.15297 10.7779 1.98041 10.6765 1.85622 10.5269C1.73204 10.3774 1.66406 10.1892 1.66406 9.9948C1.66406 9.80043 1.73204 9.61218 1.85622 9.46266C1.98041 9.31313 2.15297 9.21175 2.34404 9.17606L6.97329 8.30068C7.30241 8.23851 7.60514 8.07857 7.84198 7.84173C8.07881 7.60489 8.23876 7.30216 8.30093 6.97304L9.1763 2.34379Z" stroke="#061F2B" stroke-width="1.6658" stroke-linecap="round" stroke-linejoin="round"/>
<path d="M16.6562 1.66577V4.99737" stroke="#061F2B" stroke-width="1.6658" stroke-linecap="round" stroke-linejoin="round"/>
<path d="M18.3238 3.33154H14.9922" stroke="#061F2B" stroke-width="1.6658" stroke-linecap="round" stroke-linejoin="round"/>
<path d="M3.32986 18.3238C4.24985 18.3238 4.99566 17.578 4.99566 16.658C4.99566 15.738 4.24985 14.9922 3.32986 14.9922C2.40987 14.9922 1.66406 15.738 1.66406 16.658C1.66406 17.578 2.40987 18.3238 3.32986 18.3238Z" stroke="#061F2B" stroke-width="1.6658" stroke-linecap="round" stroke-linejoin="round"/>
</g>
<defs>
<clipPath id="clip0_1492_4884">
<rect width="19.9896" height="19.9896" fill="white"/>
</clipPath>
</defs>
</svg>
