<svg width="59" height="59" viewBox="0 0 59 59" fill="none" xmlns="http://www.w3.org/2000/svg">
<rect width="59" height="59" rx="28" fill="#9DD4EF"/>
<path d="M29.4996 10.6528C19.1071 10.6528 10.6523 19.1076 10.6523 29.5001C10.6523 39.8924 19.1071 48.3473 29.4996 48.3473C39.8919 48.3473 48.3468 39.8924 48.3468 29.5001C48.3468 19.1076 39.8919 10.6528 29.4996 10.6528Z" fill="#FCEA2B"/>
<path d="M29.4996 48.3473C39.9086 48.3473 48.3468 39.9091 48.3468 29.5001C48.3468 19.091 39.9086 10.6528 29.4996 10.6528C19.0905 10.6528 10.6523 19.091 10.6523 29.5001C10.6523 39.9091 19.0905 48.3473 29.4996 48.3473Z" stroke="black" stroke-width="2" stroke-miterlimit="10"/>
<path d="M22.125 35.2362H36.875" stroke="black" stroke-width="2" stroke-miterlimit="10" stroke-linecap="round" stroke-linejoin="round"/>
<path d="M20.4863 25.4028H24.5836" stroke="black" stroke-width="2" stroke-miterlimit="10" stroke-linecap="round" stroke-linejoin="round"/>
<path d="M35.2363 25.4028H39.3336" stroke="black" stroke-width="2" stroke-miterlimit="10" stroke-linecap="round" stroke-linejoin="round"/>
</svg>
