<svg width="59" height="59" viewBox="0 0 59 59" fill="none" xmlns="http://www.w3.org/2000/svg">
<rect width="59" height="59" rx="28" fill="#9DD4EF"/>
<path d="M29.5007 49.1667C40.3622 49.1667 49.1673 40.3616 49.1673 29.5C49.1673 18.6384 40.3622 9.83337 29.5007 9.83337C18.6391 9.83337 9.83398 18.6384 9.83398 29.5C9.83398 40.3616 18.6391 49.1667 29.5007 49.1667Z" fill="#FCEA2B"/>
<path d="M43.4506 45.0732C42.3453 44.9982 41.3353 44.4973 40.607 43.6626C38.2088 40.9154 38.5112 36.0199 38.5252 35.813C38.5544 35.3826 38.9266 35.058 39.3568 35.0871C39.564 35.1012 44.4555 35.4629 46.8548 38.2101C48.3568 39.9323 48.1788 42.5567 46.4569 44.0595C45.6239 44.7883 44.556 45.1482 43.4506 45.0732Z" fill="#92D3F5"/>
<path d="M38.3778 46.1294C35.7323 47.5447 32.7097 48.3473 29.4996 48.3473C19.0906 48.3473 10.6523 39.909 10.6523 29.5001C10.6523 19.0911 19.0906 10.6528 29.4996 10.6528C39.9086 10.6528 48.3468 19.0911 48.3468 29.5001C48.3468 31.1993 48.1219 32.846 47.7003 34.4121" stroke="black" stroke-width="2" stroke-miterlimit="10" stroke-linecap="round" stroke-linejoin="round"/>
<path d="M33.1875 26.8166C33.5261 26.5347 35.0276 25.3486 37.2102 25.4757C38.9809 25.5788 40.1684 26.4863 40.5625 26.8166" stroke="black" stroke-width="2" stroke-miterlimit="10" stroke-linecap="round" stroke-linejoin="round"/>
<path d="M18.4375 26.8166C18.7761 26.5347 20.2776 25.3486 22.4602 25.4757C24.2309 25.5788 25.4184 26.4863 25.8125 26.8166" stroke="black" stroke-width="2" stroke-miterlimit="10" stroke-linecap="round" stroke-linejoin="round"/>
<path d="M43.4506 45.0732C42.3453 44.9982 41.3353 44.4973 40.607 43.6626C38.2088 40.9154 38.5112 36.0199 38.5252 35.813C38.5544 35.3826 38.9266 35.058 39.3568 35.0871C39.564 35.1012 44.4555 35.4629 46.8548 38.2101C48.3568 39.9323 48.1788 42.5567 46.4569 44.0595C45.6239 44.7883 44.556 45.1482 43.4506 45.0732Z" stroke="black" stroke-width="2" stroke-miterlimit="10"/>
<path d="M24.1738 37.2848C25.2261 36.7623 27.4391 36.4401 29.7805 36.4669C31.9304 36.4915 33.8693 36.8066 34.8266 37.2848" stroke="black" stroke-width="2" stroke-miterlimit="10" stroke-linecap="round" stroke-linejoin="round"/>
</svg>
