<svg width="16" height="16" viewBox="0 0 16 16" fill="none" xmlns="http://www.w3.org/2000/svg">
<g clip-path="url(#clip0_1492_4621)">
<path d="M10.6663 13.9985V12.6653C10.6663 11.9581 10.3854 11.2799 9.88532 10.7799C9.38527 10.2798 8.70707 9.9989 7.99991 9.9989H4.00035C3.29319 9.9989 2.61499 10.2798 2.11495 10.7799C1.6149 11.2799 1.33398 11.9581 1.33398 12.6653V13.9985" stroke="#6A7282" stroke-width="1.33318" stroke-linecap="round" stroke-linejoin="round"/>
<path d="M10.666 2.08508C11.2378 2.23331 11.7442 2.56721 12.1056 3.03435C12.4671 3.5015 12.6633 4.07545 12.6633 4.66613C12.6633 5.2568 12.4671 5.83076 12.1056 6.29791C11.7442 6.76505 11.2378 7.09894 10.666 7.24717" stroke="#6A7282" stroke-width="1.33318" stroke-linecap="round" stroke-linejoin="round"/>
<path d="M14.6658 13.9985V12.6653C14.6654 12.0745 14.4687 11.5006 14.1068 11.0337C13.7448 10.5668 13.238 10.2333 12.666 10.0856" stroke="#6A7282" stroke-width="1.33318" stroke-linecap="round" stroke-linejoin="round"/>
<path d="M5.9984 7.33249C7.471 7.33249 8.66477 6.13872 8.66477 4.66613C8.66477 3.19353 7.471 1.99976 5.9984 1.99976C4.52581 1.99976 3.33203 3.19353 3.33203 4.66613C3.33203 6.13872 4.52581 7.33249 5.9984 7.33249Z" stroke="#6A7282" stroke-width="1.33318" stroke-linecap="round" stroke-linejoin="round"/>
</g>
<defs>
<clipPath id="clip0_1492_4621">
<rect width="15.9982" height="15.9982" fill="white"/>
</clipPath>
</defs>
</svg>
