<svg width="40" height="40" viewBox="0 0 40 40" fill="none" xmlns="http://www.w3.org/2000/svg">
<g clip-path="url(#clip0_1592_2168)">
<path d="M20 40C31.0457 40 40 31.0457 40 20C40 8.9543 31.0457 0 20 0C8.9543 0 0 8.9543 0 20C0 31.0457 8.9543 40 20 40Z" fill="#FEB531"/>
<path d="M22.5695 19.2262C22.5695 17.2512 25.2333 19.4631 27.5883 19.4631C29.9408 19.4631 32.607 17.2506 32.607 19.2262C32.607 21.2 29.9414 23.3319 27.5883 23.3319C25.2345 23.3319 22.5695 21.2 22.5695 19.2262ZM7.39453 19.2262C7.39453 17.2512 10.0577 19.4631 12.4133 19.4631C14.7652 19.4631 17.432 17.2506 17.432 19.2262C17.432 21.2 14.7664 23.3319 12.4133 23.3319C10.0589 23.3319 7.39453 21.2 7.39453 19.2262Z" fill="#633D19"/>
<path d="M37.952 8.14376C36.8807 8.15126 35.8126 8.18688 34.7426 8.16813C33.7745 8.15251 32.8614 8.30626 33.2882 7.13313C33.8239 5.63688 35.5445 4.70001 36.4545 3.43626C36.6626 3.15001 36.3732 3.11126 36.1351 3.11376C34.3595 3.12751 32.5945 3.25688 30.8245 3.39438C30.3695 3.42938 28.4726 4.52313 29.5451 4.43876C31.1138 4.31813 32.6826 4.21563 34.2557 4.18188C33.017 5.68626 31.2201 6.74813 30.9676 8.84438C30.9476 8.99376 31.0326 9.03126 31.1714 9.05063C32.9957 9.31001 34.8332 9.20126 36.6695 9.18938C37.1339 9.18938 39.0426 8.13626 37.952 8.14376ZM30.0432 10.5231C28.332 10.5344 26.6188 10.5944 24.9045 10.5663C23.3538 10.5369 21.8957 10.7875 22.5726 8.90501C23.4326 6.51001 26.1901 5.00626 27.647 2.98251C27.9801 2.52188 27.5163 2.46376 27.1363 2.46751C24.2926 2.48876 21.4676 2.69751 18.6276 2.91438C17.8982 2.96876 14.8589 4.72313 16.5776 4.59063C19.0901 4.39438 21.6026 4.23251 24.1276 4.17501C22.1438 6.58751 19.2632 8.28876 18.8607 11.65C18.8307 11.8856 18.962 11.9469 19.1864 11.9756C22.1089 12.3906 25.0532 12.2194 27.9926 12.1969C28.7357 12.1981 31.7926 10.5119 30.0432 10.5231Z" fill="#006CBC"/>
<path d="M17.1968 8.11312C16.458 8.11812 15.7193 8.14437 14.9811 8.13187C14.3111 8.11937 13.6818 8.22687 13.973 7.41562C14.3461 6.38187 15.5343 5.73312 16.1643 4.85999C16.3074 4.66124 16.1074 4.63624 15.9418 4.63749C14.7168 4.64749 13.4961 4.73624 12.2736 4.83062C11.9574 4.85437 10.648 5.61124 11.3868 5.55437C12.4709 5.46442 13.5574 5.40461 14.6449 5.37499C13.7874 6.41562 12.5449 7.14874 12.3718 8.59999C12.3574 8.70124 12.4161 8.72874 12.513 8.74124C13.7755 8.91999 15.0449 8.84562 16.3124 8.83624C16.6336 8.83624 17.9524 8.10874 17.1968 8.11312Z" fill="#006CBC"/>
<path d="M24.5239 33.8937C24.5239 36.4581 22.0933 37.4137 20.1489 37.4137C18.2052 37.4137 15.4727 36.4581 15.4727 33.8937C15.4727 31.3306 18.0545 28.25 19.9983 28.25C21.9427 28.25 24.5239 31.3331 24.5239 33.8937Z" fill="#633D19"/>
</g>
<defs>
<clipPath id="clip0_1592_2168">
<rect width="40" height="40" fill="white"/>
</clipPath>
</defs>
</svg>
