<svg width="40" height="40" viewBox="0 0 40 40" fill="none" xmlns="http://www.w3.org/2000/svg">
<g clip-path="url(#clip0_1592_1604)">
<path d="M40 20C40 31.0456 31.0456 40 20 40C8.95556 40 0 31.0456 0 20C0 8.95556 8.95556 0 20 0C31.0456 0 40 8.95556 40 20Z" fill="#FEB531"/>
<path d="M12.7778 20C14.3119 20 15.5556 18.2589 15.5556 16.1111C15.5556 13.9633 14.3119 12.2222 12.7778 12.2222C11.2437 12.2222 10 13.9633 10 16.1111C10 18.2589 11.2437 20 12.7778 20Z" fill="#664500"/>
<path d="M27.2231 20C28.7572 20 30.0009 18.2589 30.0009 16.1111C30.0009 13.9633 28.7572 12.2222 27.2231 12.2222C25.689 12.2222 24.4453 13.9633 24.4453 16.1111C24.4453 18.2589 25.689 20 27.2231 20Z" fill="#664500"/>
<path d="M9.62864 30.9678C9.72427 31.0541 9.84693 31.1046 9.97564 31.1105C10.1044 31.1163 10.2311 31.0773 10.3342 31C10.3775 30.9678 14.692 27.7778 20.0009 27.7778C25.2964 27.7778 29.6253 30.9678 29.6675 31C29.7706 31.0774 29.8972 31.1165 30.0259 31.1107C30.1546 31.105 30.2773 31.0547 30.373 30.9684C30.4687 30.8822 30.5314 30.7654 30.5505 30.638C30.5696 30.5106 30.5438 30.3805 30.4775 30.27C30.3342 30.0322 26.9031 24.4445 20.0009 24.4445C13.0986 24.4445 9.66642 30.0311 9.5242 30.27C9.4581 30.3804 9.43239 30.5103 9.45143 30.6376C9.47048 30.7649 9.53312 30.8816 9.62864 30.9678Z" fill="#664500"/>
</g>
<defs>
<clipPath id="clip0_1592_1604">
<rect width="40" height="40" fill="white"/>
</clipPath>
</defs>
</svg>
