<svg width="16" height="11" viewBox="0 0 16 11" fill="none" xmlns="http://www.w3.org/2000/svg">
<path d="M7.56328 3.07507C6.41328 3.07507 5.48828 4.00007 5.48828 5.15007C5.48828 6.30007 6.41328 7.22507 7.56328 7.22507C8.71328 7.22507 9.63828 6.30007 9.63828 5.15007C9.63828 4.00007 8.71328 3.07507 7.56328 3.07507ZM7.56328 6.10007C7.03828 6.10007 6.61328 5.67507 6.61328 5.15007C6.61328 4.62507 7.03828 4.20007 7.56328 4.20007C8.08828 4.20007 8.51328 4.62507 8.51328 5.15007C8.51328 5.67507 8.08828 6.10007 7.56328 6.10007Z" fill="#AFAFAF"/>
<path d="M14.8625 4.275C13.4375 2.15 11.4625 0 7.5625 0C3.6625 0 1.6875 2.15 0.2625 4.275C-0.0875 4.8 -0.0875 5.5 0.2625 6.025C1.6875 8.125 3.6625 10.3 7.5625 10.3C11.4625 10.3 13.4375 8.125 14.8625 6.025C15.2125 5.475 15.2125 4.8 14.8625 4.275ZM13.9375 5.4C12.1125 8.075 10.2875 9.175 7.5625 9.175C4.8375 9.175 3.0125 8.075 1.1875 5.4C1.0875 5.25 1.0875 5.05 1.1875 4.9C3.0125 2.225 4.8375 1.125 7.5625 1.125C10.2875 1.125 12.1125 2.225 13.9375 4.9C14.0125 5.05 14.0125 5.25 13.9375 5.4Z" fill="#AFAFAF"/>
</svg>
