<svg width="40" height="40" viewBox="0 0 40 40" fill="none" xmlns="http://www.w3.org/2000/svg">
<g clip-path="url(#clip0_1592_2216)">
<path d="M40 20C40 31.0456 31.0456 40 20 40C8.95556 40 0 31.0456 0 20C0 8.95556 8.95556 0 20 0C31.0456 0 40 8.95556 40 20Z" fill="#FEB531"/>
<path d="M12.7778 22.7778C14.3119 22.7778 15.5556 21.0367 15.5556 18.8889C15.5556 16.7411 14.3119 15 12.7778 15C11.2437 15 10 16.7411 10 18.8889C10 21.0367 11.2437 22.7778 12.7778 22.7778Z" fill="#664500"/>
<path d="M27.2231 22.7778C28.7572 22.7778 30.0009 21.0367 30.0009 18.8889C30.0009 16.7411 28.7572 15 27.2231 15C25.689 15 24.4453 16.7411 24.4453 18.8889C24.4453 21.0367 25.689 22.7778 27.2231 22.7778Z" fill="#664500"/>
<path d="M6.66469 15C6.45844 14.9998 6.25631 14.9422 6.08095 14.8336C5.90558 14.725 5.76389 14.5698 5.67174 14.3853C5.5796 14.2008 5.54063 13.9942 5.5592 13.7888C5.57778 13.5834 5.65316 13.3872 5.77691 13.2222C9.40136 8.38887 14.2391 8.33332 14.4436 8.33332C14.5895 8.33302 14.734 8.36147 14.869 8.41704C15.0039 8.47261 15.1265 8.55421 15.2299 8.65718C15.3333 8.76015 15.4154 8.88248 15.4715 9.01717C15.5276 9.15186 15.5566 9.29629 15.5569 9.4422C15.5572 9.58812 15.5288 9.73266 15.4732 9.86758C15.4176 10.0025 15.336 10.1251 15.233 10.2285C15.1301 10.3319 15.0078 10.414 14.8731 10.4701C14.7384 10.5262 14.5939 10.5552 14.448 10.5555C14.2758 10.5578 10.4836 10.6511 7.55469 14.5555C7.45108 14.6937 7.3167 14.8058 7.16221 14.8829C7.00772 14.9601 6.83737 15.0002 6.66469 15ZM33.3336 15C33.1609 15.0002 32.9906 14.9601 32.8361 14.8829C32.6816 14.8058 32.5472 14.6937 32.4436 14.5555C29.5091 10.6433 25.7091 10.5566 25.548 10.5555C25.2541 10.5529 24.9732 10.4339 24.7668 10.2246C24.5605 10.0153 24.4454 9.73279 24.4469 9.43887C24.4475 9.14546 24.5645 8.86426 24.7722 8.65699C24.9798 8.44972 25.2613 8.33331 25.5547 8.33332C25.7591 8.33332 30.5958 8.38887 34.2214 13.2222C34.3451 13.3872 34.4205 13.5834 34.4391 13.7888C34.4576 13.9942 34.4187 14.2008 34.3265 14.3853C34.2344 14.5698 34.0927 14.725 33.9173 14.8336C33.742 14.9422 33.5398 14.9998 33.3336 15ZM26.0936 31.5322C26.0814 31.4833 24.8214 26.6666 19.9991 26.6666C15.1769 26.6666 13.9169 31.4833 13.9047 31.5322C13.8778 31.6473 13.8883 31.7679 13.9346 31.8766C13.981 31.9853 14.0608 32.0764 14.1625 32.1367C14.2658 32.1968 14.3855 32.2228 14.5044 32.2108C14.6233 32.1988 14.7354 32.1495 14.8247 32.07C14.8347 32.0611 15.9502 31.1111 19.9991 31.1111C23.988 31.1111 25.1291 32.0333 25.1725 32.07C25.2597 32.1526 25.3714 32.2048 25.4908 32.2186C25.6102 32.2323 25.7309 32.207 25.8347 32.1464C25.9384 32.0858 26.0198 31.9932 26.0665 31.8825C26.1132 31.7717 26.1227 31.6488 26.0936 31.5322Z" fill="#664500"/>
<path d="M17.7791 34.4445C17.7791 37.5133 15.2924 40 12.2235 40C9.15464 40 6.66797 37.5133 6.66797 34.4445C6.66797 31.3756 11.1124 23.3333 12.2235 23.3333C13.3346 23.3333 17.7791 31.3756 17.7791 34.4445Z" fill="#5DADEC"/>
</g>
<defs>
<clipPath id="clip0_1592_2216">
<rect width="40" height="40" fill="white"/>
</clipPath>
</defs>
</svg>
