<svg width="40" height="40" viewBox="0 0 40 40" fill="none" xmlns="http://www.w3.org/2000/svg">
<g clip-path="url(#clip0_1592_2189)">
<path d="M40 20C40 31.0456 31.0456 40 20 40C8.95556 40 0 31.0456 0 20C0 8.95556 8.95556 0 20 0C31.0456 0 40 8.95556 40 20Z" fill="#FEB531"/>
<path d="M12.7778 20C14.3119 20 15.5556 17.264 15.5556 13.8889C15.5556 10.5138 14.3119 7.77777 12.7778 7.77777C11.2437 7.77777 10 10.5138 10 13.8889C10 17.264 11.2437 20 12.7778 20Z" fill="#664500"/>
<path d="M27.2231 20C28.7572 20 30.0009 17.264 30.0009 13.8889C30.0009 10.5138 28.7572 7.77777 27.2231 7.77777C25.689 7.77777 24.4453 10.5138 24.4453 13.8889C24.4453 17.264 25.689 20 27.2231 20Z" fill="#664500"/>
<path d="M19.9996 24.4445C15.974 24.4445 13.3029 23.9756 9.99957 23.3334C9.24512 23.1878 7.77734 23.3334 7.77734 25.5556C7.77734 30 12.8829 35.5556 19.9996 35.5556C27.1151 35.5556 32.2218 30 32.2218 25.5556C32.2218 23.3334 30.754 23.1867 29.9996 23.3334C26.6962 23.9756 24.0251 24.4445 19.9996 24.4445Z" fill="#664500"/>
<path d="M10 25.5555C10 25.5555 13.3333 26.6667 20 26.6667C26.6667 26.6667 30 25.5555 30 25.5555C30 25.5555 27.7778 30 20 30C12.2222 30 10 25.5555 10 25.5555Z" fill="white"/>
</g>
<defs>
<clipPath id="clip0_1592_2189">
<rect width="40" height="40" fill="white"/>
</clipPath>
</defs>
</svg>
