<svg width="16" height="16" viewBox="0 0 16 16" fill="none" xmlns="http://www.w3.org/2000/svg">
<path d="M13.332 1.33334H2.66536C1.93203 1.33334 1.3387 1.93334 1.3387 2.66668L1.33203 14.6667L3.9987 12H13.332C14.0654 12 14.6654 11.4 14.6654 10.6667V2.66668C14.6654 1.93334 14.0654 1.33334 13.332 1.33334ZM11.332 9.33334H4.66536C4.2987 9.33334 3.9987 9.03334 3.9987 8.66668C3.9987 8.30001 4.2987 8.00001 4.66536 8.00001H11.332C11.6987 8.00001 11.9987 8.30001 11.9987 8.66668C11.9987 9.03334 11.6987 9.33334 11.332 9.33334ZM11.332 7.33334H4.66536C4.2987 7.33334 3.9987 7.03334 3.9987 6.66668C3.9987 6.30001 4.2987 6.00001 4.66536 6.00001H11.332C11.6987 6.00001 11.9987 6.30001 11.9987 6.66668C11.9987 7.03334 11.6987 7.33334 11.332 7.33334ZM11.332 5.33334H4.66536C4.2987 5.33334 3.9987 5.03334 3.9987 4.66668C3.9987 4.30001 4.2987 4.00001 4.66536 4.00001H11.332C11.6987 4.00001 11.9987 4.30001 11.9987 4.66668C11.9987 5.03334 11.6987 5.33334 11.332 5.33334Z" fill="#003148"/>
</svg>
