<svg width="40" height="40" viewBox="0 0 40 40" fill="none" xmlns="http://www.w3.org/2000/svg">
<path d="M19.875 37.125C11.1562 37.125 1.75 31.6562 1.75 19.6562C1.75 7.65625 11.1562 2.1875 19.875 2.1875C24.7188 2.1875 29.1875 3.78125 32.5 6.6875C36.0938 9.875 38 14.375 38 19.6562C38 24.9375 36.0938 29.4063 32.5 32.5938C29.1875 35.5 24.6875 37.125 19.875 37.125Z" fill="#FEB531"/>
<path d="M34.8422 9.27185C36.5078 11.9594 37.3766 15.1594 37.3766 18.7187C37.3766 24 35.4703 28.4687 31.8766 31.6562C28.5641 34.5625 24.0641 36.1875 19.2516 36.1875C13.6078 36.1875 7.68906 33.8906 4.19531 29.0187C7.55781 34.5375 13.8828 37.125 19.8766 37.125C24.6891 37.125 29.1891 35.5 32.5016 32.5937C36.0953 29.4062 38.0016 24.9375 38.0016 19.6562C38.0016 15.675 36.9172 12.1375 34.8422 9.27185Z" fill="#FEB531"/>
<path d="M12.1172 28.6156L14.0328 30.4063L17.0016 27.5312L20.0016 30.4063L22.9703 27.5312L25.9703 30.4063L27.9172 28.5844" stroke="#35220B" stroke-linecap="round" stroke-linejoin="round"/>
<path d="M10.0625 21.5938L13.875 20.8438L9.96877 19.2188C9.93432 19.1859 9.89076 19.1641 9.84377 19.1563C9.03127 18.6563 8.87502 17.625 9.62502 17C9.9308 16.7637 10.3022 16.6279 10.6883 16.6111C11.0743 16.5943 11.4561 16.6974 11.7813 16.9063C13.3438 17.8438 17 20.0938 18.4375 20.9688C18.5969 21.0375 18.6688 21.2219 18.6 21.3781C18.5594 21.4719 18.475 21.5406 18.375 21.5625L11.2188 24.25C11.1563 24.2813 11.125 24.2813 11.0625 24.3125C10.125 24.5625 9.09377 24.0313 8.93752 23.125C8.78127 22.4375 9.31252 21.7813 10.0625 21.5938ZM29.9375 21.5L26.125 20.75L30.0625 19.125C30.0969 19.0906 30.1406 19.0719 30.1875 19.0625C31 18.5625 31.1563 17.5313 30.4063 16.9063C30.1005 16.67 29.7291 16.5341 29.343 16.5173C28.957 16.5005 28.5752 16.6037 28.25 16.8125C26.6875 17.75 23.0313 20 21.5938 20.875C21.4344 20.9438 21.3625 21.1281 21.4313 21.2844C21.4719 21.3781 21.5563 21.4469 21.6563 21.4688L28.8125 24.1563C28.875 24.1875 28.9063 24.1875 28.9688 24.2188C29.9063 24.4688 30.9375 23.9375 31.0938 23.0313C31.2188 22.3438 30.6875 21.7188 29.9375 21.5Z" fill="#422B0D"/>
</svg>
