<svg width="40" height="40" viewBox="0 0 40 40" fill="none" xmlns="http://www.w3.org/2000/svg">
<path d="M19.7578 37.125C11.0391 37.125 1.63281 31.6562 1.63281 19.6562C1.63281 7.65625 11.0391 2.1875 19.7578 2.1875C24.6016 2.1875 29.0703 3.78125 32.3828 6.6875C35.9766 9.875 37.8828 14.375 37.8828 19.6562C37.8828 24.9375 35.9766 29.4063 32.3828 32.5938C29.0641 35.5 24.5703 37.125 19.7578 37.125Z" fill="#FEB531"/>
<path d="M34.7766 9.34064C36.4422 12.0281 37.3766 15.1594 37.3766 18.7188C37.3766 24 35.4703 28.4688 31.8766 31.6563C28.5641 34.5625 24.0641 36.1875 19.2516 36.1875C13.6078 36.1875 7.68906 33.8906 4.19531 29.0188C7.55781 34.5375 13.8828 37.125 19.8766 37.125C24.6891 37.125 29.1891 35.5 32.5016 32.5938C36.0953 29.4063 38.0016 24.9375 38.0016 19.6563C38.0016 15.675 36.8516 12.2063 34.7766 9.34064Z" fill="#EB8F00"/>
<path d="M25.7514 31.2813C24.3764 31.375 15.6576 31.6875 14.7826 31.5313C13.5951 31.3125 13.6889 29.6875 14.8764 29.5313C15.4389 29.4688 18.7826 29.1563 20.3764 29.1563C21.9701 29.1563 22.9701 29.3125 23.5951 29.4063C24.1576 29.5 25.5326 29.875 25.8451 29.9375C26.5014 30.125 26.5014 31.2188 25.7514 31.2813ZM31.3764 12.5625C30.9389 12.2813 27.8139 11.1563 24.0639 12C23.0639 12.2188 23.4076 13.5938 24.3139 13.4063C27.5639 12.7188 30.1889 13.5 30.9389 13.625C31.6889 13.75 31.8139 12.8438 31.3764 12.5625Z" fill="#422B0D"/>
<path d="M30.7811 20.0625C32.1874 19.4688 32.8436 20.75 32.5624 21.875C31.8436 24.6563 25.4999 27.0938 22.4999 22.0938C21.6249 20.6563 23.2186 19.7813 24.1249 20.4375C26.5311 22.1875 29.3436 20.6563 30.7811 20.0625ZM9.31238 20.375C8.62488 19.6875 7.24988 20.375 7.46863 21.5C8.34363 25.8438 16.0311 26.4688 17.4999 21.9375C17.8749 20.7188 16.8436 19.9375 15.7186 20.5625C12.9686 22.0938 10.8436 21.8438 9.31238 20.375Z" fill="#EB8F00"/>
<path d="M22.7804 17.125C24.6866 17.0625 29.2491 17.2187 31.1866 17.375C31.8741 17.4375 31.9366 18.0312 31.8741 18.4375C31.0304 23.375 22.6554 24.2812 22.0616 18.0625C21.9991 17.2187 22.4366 17.125 22.7804 17.125ZM8.62412 17.75C8.09287 17.8437 7.87412 18.375 7.99912 18.9062C9.15537 23.7812 17.4679 23.7187 17.8429 17.9687C17.8429 17.4375 17.6554 17 16.9991 17C15.5616 17 10.6554 17.4375 8.62412 17.75Z" fill="white"/>
<mask id="mask0_1592_2197" style="mask-type:luminance" maskUnits="userSpaceOnUse" x="7" y="17" width="25" height="6">
<path d="M22.7804 17.125C24.6866 17.0625 29.2491 17.2187 31.1866 17.375C31.8741 17.4375 31.9366 18.0312 31.8741 18.4375C31.0304 23.375 22.6554 24.2812 22.0616 18.0625C21.9991 17.2187 22.4366 17.125 22.7804 17.125ZM8.62412 17.75C8.09287 17.8437 7.87412 18.375 7.99912 18.9062C9.15537 23.7812 17.4679 23.7187 17.8429 17.9687C17.8429 17.4375 17.6554 17 16.9991 17C15.5616 17 10.6554 17.4375 8.62412 17.75Z" fill="white"/>
</mask>
<g mask="url(#mask0_1592_2197)">
<path d="M28.8431 17C29.6869 18.4063 28.7181 20.25 26.9056 20.25C25.0931 20.25 24.1244 18.5625 25.2494 16.875C25.9369 15.8125 28.0619 15.6875 28.8431 17ZM11.1556 17.125C10.2494 18.6562 11.4369 20.2813 12.9056 20.2813C14.3744 20.2813 15.4681 18.3437 14.5619 17.0312C13.8431 16 11.8119 16 11.1556 17.125Z" fill="#422B0D"/>
</g>
<mask id="mask1_1592_2197" style="mask-type:luminance" maskUnits="userSpaceOnUse" x="7" y="17" width="25" height="6">
<path d="M22.7804 17.125C24.6866 17.0625 29.2491 17.2187 31.1866 17.375C31.8741 17.4375 31.9366 18.0312 31.8741 18.4375C31.0304 23.375 22.6554 24.2812 22.0616 18.0625C21.9991 17.2187 22.4366 17.125 22.7804 17.125ZM8.62412 17.75C8.09287 17.8437 7.87412 18.375 7.99912 18.9062C9.15537 23.7812 17.4679 23.7187 17.8429 17.9687C17.8429 17.4375 17.6554 17 16.9991 17C15.5616 17 10.6554 17.4375 8.62412 17.75Z" fill="white"/>
</mask>
<g mask="url(#mask1_1592_2197)">
<path d="M12.9688 17.5312C12.9688 17.9375 12.625 18.2812 12.1875 18.2812C11.75 18.2812 11.4062 17.9375 11.4062 17.5312C11.4062 17.125 11.75 16.7812 12.1875 16.7812C12.625 16.7812 12.9688 17.125 12.9688 17.5312ZM26.1875 16.6875C25.75 16.6875 25.4063 17.0312 25.4063 17.4688C25.4063 17.9062 25.75 18.25 26.1875 18.25C26.625 18.25 26.9688 17.9062 26.9688 17.4688C26.9688 17.0312 26.625 16.6875 26.1875 16.6875Z" fill="#896024"/>
</g>
<path d="M16.6186 11.5156C16.1561 11.2781 12.9342 10.4719 9.28737 11.6875C8.3155 12.0062 8.79362 13.3375 9.678 13.0625C12.8436 12.0531 15.5342 12.5687 16.2905 12.6156C17.0467 12.6625 17.0842 11.75 16.6186 11.5156Z" fill="#422B0D"/>
</svg>
